<svg xmlns="http://www.w3.org/2000/svg" viewBox="0 0 24 16">
  <rect width="24" height="16" fill="#de2910"/>
  <path d="m4 2 .7 2.1h2.2L5.1 5.4l.7 2.1L4 6.2 2.2 7.5l.7-2.1-1.8-1.3h2.2z" fill="#ffde00"/>
  <g fill="#ffde00">
    <path d="m9.3 1.5.3.8h.8l-.7.5.3.8-.7-.5-.7.5.3-.8-.7-.5H9z"/>
    <path d="m11.2 3.7.3.8h.8l-.7.5.3.8-.7-.5-.7.5.3-.8-.7-.5h.8z"/>
    <path d="m11.2 6.6.3.8h.8l-.7.5.3.8-.7-.5-.7.5.3-.8-.7-.5h.8z"/>
    <path d="m9.3 8.8.3.8h.8l-.7.5.3.8-.7-.5-.7.5.3-.8-.7-.5H9z"/>
  </g>
</svg>
